<?xml version="1.0" encoding="utf-8"?>
<!-- Generator: Adobe Illustrator 18.1.1, SVG Export Plug-In . SVG Version: 6.00 Build 0)  -->
<svg version="1.1" id="Layer_1" xmlns="http://www.w3.org/2000/svg" xmlns:xlink="http://www.w3.org/1999/xlink" x="0px" y="0px"
	 viewBox="0 0 110 29" enable-background="new 0 0 110 29" xml:space="preserve">
<linearGradient id="SVGID_1_" gradientUnits="userSpaceOnUse" x1="59.772" y1="8.1481" x2="88.875" y2="37.2512">
	<stop  offset="0" style="stop-color:#765CA6"/>
	<stop  offset="1" style="stop-color:#5864AD"/>
</linearGradient>
<path fill="url(#SVGID_1_)" d="M74.9,28.5c0.7,0,1.3-0.6,1.3-1.3v-8.3c0,0-0.2-4.3,2.6-4.3c2.8,0,2.6,4.3,2.6,4.3v8.3
	c0,0.7,0.6,1.3,1.3,1.3h4.6c0.7,0,1.3-0.6,1.3-1.3v-8.3c0-7.8-5.8-10-9.1-10c-4.7,0-6.9,3.3-6.9,3.3h0c0,0-2.2-3.3-6.9-3.3
	c-3.2,0-9.1,2.1-9.1,10v8.3c0,0.7,0.6,1.3,1.3,1.3h4.6c0.7,0,1.3-0.6,1.3-1.3v-8.3c0,0-0.2-4.3,2.6-4.3c2.8,0,2.6,4.3,2.6,4.3v8.3
	c0,0.7,0.6,1.3,1.3,1.3H74.9z"/>
<linearGradient id="SVGID_2_" gradientUnits="userSpaceOnUse" x1="74.3946" y1="-6.4744" x2="103.4976" y2="22.6286">
	<stop  offset="0" style="stop-color:#765CA6"/>
	<stop  offset="1" style="stop-color:#5864AD"/>
</linearGradient>
<path fill="url(#SVGID_2_)" d="M107.6,22l-3.6,0c-0.5,0-1,0.2-1.4,0.6c-0.4,0.5-1.2,1-2.5,1c-1.9,0-3.2-1.4-3.2-3.1l11.3,0
	c0.7,0,1.3-0.6,1.3-1.3c0-3.6-2.2-10.3-9.6-10.3c-5.1,0-9.8,3.4-9.8,10s5.3,10,9.8,10c5.3,0,7.6-2.9,8.8-4.9
	C109.2,23.1,108.6,22,107.6,22z M99.7,14.2c2,0,2.8,2.1,2.8,3h-5.7C96.8,16.3,97.7,14.2,99.7,14.2z"/>
<path fill="#383B3D" d="M49.7,18.2l3.8-6.9c0.5-0.8-0.1-1.9-1.1-1.9H48c-0.5,0-0.9,0.3-1.1,0.7l-2.7,4.9h-0.4l-2.7-4.9
	c-0.2-0.4-0.6-0.7-1.1-0.7h-4.4c-1,0-1.6,1-1.1,1.9l3.8,6.9l-4.7,8.4c-0.5,0.8,0.1,1.9,1.1,1.9h4.7c0.5,0,0.9-0.2,1.1-0.6l3.2-5.6
	h0.4l3.2,5.6c0.2,0.4,0.6,0.6,1.1,0.6h4.7c1,0,1.6-1,1.1-1.9L49.7,18.2z"/>
<path fill="#383B3D" d="M29.8,9.4h-4c-0.7,0-1.3,0.6-1.3,1.3v16.5c0,0.7,0.6,1.3,1.3,1.3h4c0.7,0,1.3-0.6,1.3-1.3V10.7
	C31.1,10,30.5,9.4,29.8,9.4z"/>
<path fill="#383B3D" d="M16,28.5h4c0.7,0,1.3-0.6,1.3-1.3V10.7c0-0.7-0.6-1.3-1.3-1.3h-4c-0.7,0-1.3,0.6-1.3,1.3v5.6H8v-5.6
	C8,10,7.4,9.4,6.7,9.4h-4C2,9.4,1.4,10,1.4,10.7v16.5c0,0.7,0.6,1.3,1.3,1.3h4c0.7,0,1.3-0.6,1.3-1.3v-5.5h6.8v5.5
	C14.7,27.9,15.3,28.5,16,28.5z"/>
<path fill="#383B3D" d="M28.3,0.4h-1.1c-1.8,0-3.2,1.4-3.2,3.2V4c0,1.8,1.4,3.2,3.2,3.2h1.1c1.8,0,3.2-1.4,3.2-3.2V3.6
	C31.6,1.8,30.1,0.4,28.3,0.4z"/>
</svg>
