<?xml version="1.0" encoding="utf-8"?>
<!-- Generator: Adobe Illustrator 19.1.0, SVG Export Plug-In . SVG Version: 6.00 Build 0)  -->
<svg version="1.1" id="US-ALL" xmlns:amcharts="http://amcharts.com/ammap"
	 xmlns="http://www.w3.org/2000/svg" xmlns:xlink="http://www.w3.org/1999/xlink" x="0px" y="0px" viewBox="6 -1 827.1 576.9"
	 style="enable-background:new 6 -1 827.1 576.9;" xml:space="preserve">
<style type="text/css">
	.st0{stroke:#FFFFFF;stroke-width:0.5;}
	.st1{font-family:'MyriadPro-Regular';}
	.st2{font-size:18px;cursor:default;fill:#000;}
</style>
<g>
	<g id="AK" class="state">
		<path id="US-AK" class="st0" d="M113.9,367.2l2.2,6.7l2.4-2.4l7.5,1.9l-0.6,3.2l6.7,3.2l4.8-0.8l9.4,5.3l8.9,1.9l3.5,1.9l6.4-1.9
			l7,4.3l5.1,1.9l0,0l-0.2,49.5l-0.3,71.8l6.1,0.3l6.1,3.4l4.5,5.3l5.8,7.8l5.8-7l6.1-4.3l3.7,6.1l4.5,4.6l6.2,5l4.6,8.3l7.8,12.9
			l12,6.4l1.1,7.4l-3,6.1l-4.2-4l-6.2-3.2l-2.9-10.1l-9.3-8.9l-4.3-11l-6.2-0.3l-10.1,0.2l-7.5-3.2L184.2,523l-5.9-2.2l-10.7-4.5
			l-8.5,0.8l-11.7-6.2l-6.9-5.8l-6.9,2.1l0.5,8.6l-3.5,0.5l-7.4,1.9l-5.9,3.5l-7.2,1.8v-7.2l4.2-11.7l6.7-3l-1.3-3.2l-8.3,5.9
			l-5.1,7.5l-10.1,7.4l3.7,6.6l-7.2,7.7l-7.5,3.8l-7,2.6l-2.6,5l-11.2,4.2l-3.2,5.1l-8.6,3.4l-4.3-1.9l-6.9,1.9l-7.7,2.4l-6.4,2.4
			l-12.1,0.3l-0.5-2.2l8.6-3.4l7.4-1.9l8.5-4.6l8.3,0.5l4.3-4l10.4-5.1l1.9-2.1l5.4-3.2l2.7-8.8l4.5-6.4l-7.8,2.2l-1.6-2.4l-4.2,3.7
			l-2.7-6.9l-2.6,3.8l-1-6.4l-7.2,3.4l-3.8-1l1.1-7.2l2.1-4.2l-2.9-5.1l-8.3,0.3l-3.5-6.9l-3.2-4l1.9-6.7l-3-6.4l4.2-6.2l6.4-5.4
			l3.7-5.8l4.6,0.3l3.4,2.9l5.9-4.8l3.7,2.1l5.1-2.9l0.3-5.9l-2.6-2.9l5.1-3.8l-3.4-0.6l-6.2,1.4l-2.2,2.4l-3.5-3.8l-7.8-0.6
			l-6.9-5.1l-0.8-5.6l-4.3-9.1l8.8-3l12.9-3l4.2,1.1l-2.4,6.1l10.9,2.2l-2.2-8.8l-5-6.4l-1.8-7.4l-3.2-6.7l-5.4-5.9l4.6-6.1l8.5,1.9
			l7.5-4.5l2.7-6.2l6.2-5.3l4.8-0.5l9.9-4.2l4,1.8l8.3-6.1L113.9,367.2z M8.1,440.7l2.4,3.4l3.7-0.2l3.2,4.6l4.8,3.4l-0.8,1.1
			l-5,1.3l-3.2-4l-1.3-2.9l-5-1L6,445L8.1,440.7z M27.9,497.6l-4.2,0.8l-3.2-3.4l-2.6-4.3l6.4-0.3l4.3,2.4L27.9,497.6z M98.7,546.9
			l-7,3.5l-2.9-3.5l-0.2-5.8l6.4-3.4l3.7-1.3l4.2,1.4l2.2,4L98.7,546.9z"/>
		<text transform="matrix(1 0 0 1 105.4492 455.0339)" class="st1 st2">AK</text>
	</g>
	<g id="AL" class="state">
		<path id="US-AL" class="st0" d="M618.6,293.5l6.6,21.9l5.8,17.6l2.9,5.4l1.8,3l-2.1,3.5l-0.2,5.9l1.3,3.4v3.2v3l1.3,2.2l1,2.1
			l-32,3.7l-8.8,1.9l-0.2,1.4l4,4.2l-0.5,3.7l-1,2.6l-14.2-0.8l-2.9-27.8l0.3-29.2l0.6-23.7l-1.4-3.4l18.7-1.8L618.6,293.5z"/>
		<text transform="matrix(1 0 0 1 596.2817 341.7265)" class="st1 st2">AL</text>
	</g>
	<g id="AR" class="state">
		<path id="US-AR" class="st0" d="M557.2,280.3v1.4l-1.3,2.7l-2.4,1.9l-0.3,3l-2.2,2.6l0.5,5.3l-1.6,1.8l-0.2,1.4l-2.6,1.6l0.2,2.6
			l-1.8,5l-1.6,1.1l-2.6,2.6l-1.4,3.8l-3,6.6l-0.2,4.3l2.1,4.6l-0.5,3.7h-12.9l-16.8,1.3l-14.9,0.3l0.6-10.4h-3.5l-2.9,0.3l-0.8-1.1
			l0.2-15.8v-17.7l-3.2-19.2l17.7-0.2l16.1-0.5l15.5-0.6l16.8,0.2l1.4,2.2l-1.6,2.1l-1.6,2.1l-0.8,1.9L557.2,280.3z"/>
		<text transform="matrix(1 0 0 1 505.6874 308.964)" class="st1 st2">AR</text>
	</g>
	<g id="AZ" class="state">
		<path id="US-AZ" class="st0" d="M274.8,252.1L260.1,354l-30.7-4.6l-32.8-19L175.6,317l2.1-3.2l1.9,0.5l2.4-3.2l-2.1-3v-2.7
			l-0.2-3.4l3.8-3.5l2.9-7.8l5.3-2.7l-2.1-4l-1.3-3.7l-0.6-3.4l-0.3-2.6v-1.6l1.6-3.4v-3.7l0.5-3.5l0.8-3.8l-0.8-2.7l1.4-1.9l3,0.6
			l2.6,1.8l1.8,1.1l1.4-2.6l0.8-0.5l2.7-14.4l23,4.2l27.5,4.8L274.8,252.1z"/>
		<text transform="matrix(1 0 0 1 215.5527 298.9756)" class="st1 st2">AZ</text>
	</g>
	<g id="CA" class="state">
		<path id="US-CA" class="st0" d="M142.6,132.6L128.4,185l20,30.4l19.8,29.4l19.3,27.8v1.6l0.3,2.6l0.6,3.4l1.3,3.7l2.1,4l-5.3,2.7
			l-2.9,7.8l-3.8,3.5l0.2,3.4v2.7l2.1,3l-2.4,3.2l-1.9-0.5l-19.5-2.2l-17.4-2.6l-0.3-7l-4.2-10.7l-13.1-14.5l-5.8-2.2l-5-7.2
			l-11.2-4.5l-2.9-3.8l1-10.1l-8.8-21.4l-4.5-27.6l1.8-3.8l-4.3-7.5l-6.1-17.7l2.6-14.7l-4-11.7l7.5-13.4l4.3-15L142.6,132.6z"/>
		<text transform="matrix(1 0 0 1 108.1069 222.9439)" class="st1 st2">CA</text>
	</g>
	<g id="CO" class="state">
		<path id="US-CO" class="st0" d="M379.7,208.7l-1.8,27.8l-1.8,26.5l-13.9-1.1l-17.3-1.4l-24.6-2.4l-22.9-2.7l-22.5-3l10.2-71.8
			l13.6,1.9l13.6,1.8l27.3,3l13.7,1.3l27.3,2.1l-1.3,17.6L379.7,208.7z"/>
		<text transform="matrix(1 0 0 1 315.5453 231.1265)" class="st1 st2">CO</text>
	</g>
	<g id="CT" class="state">
		<path id="US-CT" class="st0" d="M787.5,131.5l2.7,9.6l-0.2,2.7l-5.6,2.4l-7.5,2.9l-9.3,6.7l-1-2.1l2.4-2.4l-1.4-1.3l-2.7-13.6
			l10.1-2.2L787.5,131.5z"/>
		<path class="st0" d="M803.8,232.1h-30c-1.1,0-2-0.9-2-2v-19.9c0-1.1,0.9-2,2-2h30c1.1,0,2,0.9,2,2v19.9
			C805.8,231.2,804.9,232.1,803.8,232.1z"/>
		<text transform="matrix(1 0 0 1 779.177 226.3073)" class="st1 st2">CT</text>
	</g>
	<g id="DC" class="state">
		<path id="US-DC" class="st0" d="M730.8,205.5l-0.2-1.1l-1.4-1.3l1-1.1l2.1,1.4L730.8,205.5z"/>
		<path class="st0" d="M803.8,333.1h-30c-1.1,0-2-0.9-2-2v-19.9c0-1.1,0.9-2,2-2h30c1.1,0,2,0.9,2,2v19.9
			C805.8,332.2,804.9,333.1,803.8,333.1z"/>
		<text id="DC" transform="matrix(1 0 0 1 777.656 327.3073)" class="st1 st2">DC</text>
	</g>
	<g id="DE" class="state">
		<path id="US-DE" class="st0" d="M749.3,182.6l-1.6,2.2l1.1,3.4l5.1,8.8l5.9,8.2l-9.3,2.1l-6.1-22.4l0.8-1.6l1.1-1.1L749.3,182.6z"
			/>
		<path class="st0" d="M803.8,282.1h-30c-1.1,0-2-0.9-2-2v-19.9c0-1.1,0.9-2,2-2h30c1.1,0,2,0.9,2,2v19.9
			C805.8,281.2,804.9,282.1,803.8,282.1z"/>
		<text id="DE" transform="matrix(1 0 0 1 778.448 276.3073)" class="st1 st2">DE</text>
	</g>
	<g id="FL" class="state">
		<path id="US-FL" class="st0" d="M692.1,361.6l4.2,12.8l8.5,13.9l9.4,12.3l1.3,7l10.2,17.4l3.5,16.1l-0.6,16.5l-6.4,4.5l-8.6-0.8
			l-4-7.7l-7-3.2l-11.2-14.4L681.2,424l-2.7-8.5l1.1-11.5l-5.1-9.6l-11.8-9.4l-9.9-5.8l-16.8,9.9l-4.3-4.6l-15.8-6.6l-17.6,4l1-2.6
			l0.5-3.7l-4-4.2l0.2-1.4l8.8-1.9l32-3.7l3,4.6l15.8-1.3l25.7-1l1.6,3l1.8-1.9l-1-6.2l1.8-1l3.4,0.8H692.1z"/>
		<text id="FL" transform="matrix(1 0 0 1 690.239 416.3073)" class="st1 st2">FL</text>
	</g>
	<g id="GA" class="state">
		<path id="US-GA" class="st0" d="M656.3,288.7l-1.4,1.8l-1.9,3.7l4.5,2.4l2.7,0.6l3.7,5.3l2.2,2.9l5.9,3.5l1.4,2.1l4,2.4l2.4,4
			l5.4,2.9l1.8,4l1.3,1.9l-0.3,1.4l3.2,1.4l2.1,3.2l0.5,3.4l1.6,0.5l2.7,0.5l-4.5,14.2l-1.3,10.7l-3.4,0.2l-3.4-0.8l-1.8,1l1,6.2
			l-1.8,1.9l-1.6-3l-25.7,1l-15.8,1.3l-3-4.6l-1-2.1l-1.3-2.2v-3V354l-1.3-3.4l0.2-5.9l2.1-3.5l-1.8-3l-2.9-5.4l-5.8-17.6l-6.6-21.9
			l11.5-1.3l7.8-1.1L656.3,288.7z"/>
		<text id="GA" transform="matrix(1 0 0 1 647.7444 337.3073)" class="st1 st2">GA</text>
	</g>
	<g id="HI" class="state">
		<path id="US-HI" class="st0" d="M236.4,437.9l-2.9,2.9l-4.1-0.6l-5.1-3.5l1.4-2.9l3.7-2.5l6-0.6l1.4,1.8L236.4,437.9z
			 M281.2,448.4l2.7,3.9l-4.3,1.6l-2.9-1.8l-1.4,0.6l-0.4,0.4l-3.5,0.4l-5.1-7l3.9-0.8l4.1-3.3l4.3,6.2L281.2,448.4z M309.1,454.1
			l-3.7,3.3l-11.7-0.4l0.8-3.5L309.1,454.1z M312.8,457l3.7,2.9l4.7-1.6l7.6,3.7l0.4,2.3l-2.3,2.3l-8,2.1l-2.5-5.3l-3.7-0.2
			l-2.5-3.3l0.8-2.3L312.8,457z M348.2,508.7l-1.8,4.5l-7.4-2.3l-1.6-9l-5.7-10l5.3-8.4l-2.5-4.1l0.2-2.5l1-0.6l18.1,5.7l3.5,3.1
			l1.2,3.5l2.1,0.2l1.4,2.5l4.5,2.9l-6,6.8l-6.8,2.5L348.2,508.7z"/>
		<text id="HI" transform="matrix(1 0 0 1 339.0471 500.3073)" class="st1 st2">HI</text>
	</g>
	<g id="IA" class="state">
		<path id="US-IA" class="st0" d="M527,146.2l0.2,1l1.9,2.7l-1.1,1.4l0.3,3.8l0.6,1.6l1,2.9l4.5,1.4l1.4,2.7l0.8,1.3l1.6,0.8
			l0.8,1.9l2.2,1.3l1.4,1.4l-0.5,5l-2.2,4.3l-0.8,1.3l-3,1.3l-4.6,1.1l-1.1,3.2l1.8,1.3l0.8,2.7l-1.6,3.2l-0.8,2.9l-3.4,2.9
			l-0.2,3.4l-1.9-1.4l-2.7-2.9l-15,1l-15.8,0.6l-12.5,0.2h-12.5l-1-3.4l0.3-3.2l-0.3-3.2l-1.4-5.3l-1-2.2l-1-0.6l-0.2-4.2l-0.8-3
			l-2.4-3.4v-1.4l-0.8-3l-0.6-1.8v-1.6l-2.2-2.1l1.1-3l0.6-2.9l0.3-1.9l-1.8-2.4v-4.5h1.8h14.5l18.1-0.5l19.3-0.6L527,146.2z"/>
		<text transform="matrix(1 0 0 1 487.9384 180.5512)" class="st1 st2">IA</text>
	</g>
	<g id="ID" class="state">
		<path id="US-ID" class="st0" d="M268.1,113.3l0.5,0.3l-7.5,44.6l-39.8-7.2l-39.6-8.8l7.7-31.8l2.2-4.8l-0.5-2.6l-2.1-1.8l0.6-2.9
			l2.7-3.7l3.5-2.9l3.2-5.3l2.7-4.2l1.8-2.1v-2.9l-1.8-1.9l-2.1-4.2l0.8-3.2l-0.5-3l5.4-24.9l5.3-22.9l11.7,2.7l-3.2,19l2.1,5.4
			l-0.6,3.2l1.6,3.4l2.4,2.2l1.4,3.2l2.2,6.2L231,66l3.7,1l-2.2,3.7l-2.2,4.5l0.2,4.8l-1.8,0.8l-0.8,4.6l1.9,2.2l2.9-1.6l1.8-2.2
			l1.4,0.8l1,2.7l0.3,5.9l1.8,2.7l-0.2,4.8l0.5,1.4l2.6,1l1.1,2.9l1.4,5.1l2.9-2.1l4.2,1.4l0.6-1.8l7,2.4h3l2.4-3.2l1.3,0.8l0.8,2.7
			L268.1,113.3z"/>
		<text transform="matrix(1 0 0 1 212.4526 126.5512)" class="st1 st2">ID</text>
	</g>
	<g id="IL" class="state">
		<path id="US-IL" class="st0" d="M573.8,161.2L573.8,161.2l0.5,4.8l4.5,9.1l0,0l0,0l1.9,20.9l1.9,20.9l-1.1,5.1l1.3,1.3l1,3
			l0.2,2.4l-1.1,1.3l-0.8,3l-2.6,4.2l-1.6,5l-0.2,3.7l0.2,1.3l-1.4,2.7l1.4,1.6l-2.4,1.6l-3.2,1.8l1,3.8l-1.8,1.6l-3.7-1.4l-4-0.6
			L563,260l0.8,2.7l-2.7-2.6l-1.6,0.6l-2.2-4.3l0.3-2.7l-1.4-4.3l-1.4-0.5l-4-3.7h-1.6l-3-2.4l-2.2-2.6l0.8-3.2l1.1-2.7l0.6-3.4
			l-2.9-2.7l-2.6,1.3l-1.6-0.6l-0.5-3l-1.4-3.4l-1.3-0.8l-3.4-2.2l-2.9-2.9l-2.6-3.7l-1.4-5.4l1-4.6l0.2-3.4l3.4-2.9l0.8-2.9
			l1.6-3.2l-0.8-2.7l-1.4-1.1l1.1-3.2l4.6-1.1l3-1.3l0.8-1.3l2.2-4.3l0.5-5l-1.4-1.4l-2.2-1.3l-0.8-1.9l-1.6-0.8l-0.8-1.3l13.7-1
			l14.1-1L573.8,161.2L573.8,161.2L573.8,161.2z"/>
		<text transform="matrix(1 0 0 1 553.1987 214.5512)" class="st1 st2">IL</text>
	</g>
	<g id="IN" class="state">
		<path id="US-IN" class="st0" d="M615.7,171.6l1.9,16.3l2.1,17.6l1.4,12.5l-0.6,1l1.6,3.5l-0.5,1.4l-2.4,0.3l-2.1,1.9l-3.4-0.3
			l0.2,3.5l-1.8,1.6l-1.4,3.4l-1.9,0.8l-2.6,5.8l-3-1.3l-1.1-2.1l-2.1,3.8l-1.4,2.2l-3.4-1.8l-3,2.1l-1,1.9l-4.6-2.4l-2.9,2.2
			l-3.8-1.1v2.1l-1.9-0.3l0.2-3.7l1.6-5l2.6-4.2l0.8-3l1.1-1.3l-0.2-2.4l-1-3l-1.3-1.3l1.1-5.1l-1.9-20.9l-1.9-20.9l0,0l1.3,1.1
			l4.6-0.5l3.5-2.4l0,0l14.5-1.4l12.6-1.6L615.7,171.6z"/>
		<text transform="matrix(1 0 0 1 593.5248 214.5512)" class="st1 st2">IN</text>
	</g>
	<g id="KS" class="state">
		<path id="US-KS" class="st0" d="M483.9,265.6l-12.8,0.2l-26.2-0.2l-26.2-0.6l-14.5-0.5l-14.5-0.8l-13.6-0.8l1.8-26.5l1.8-27.8l0,0
			l24.3,1.4l18.1,0.8l32.1,0.6h19.2l3.4,2.4h1.8l0.5,2.6l-1.9,3.4l1.1,1.8l1.8,3.8l3.7,1.6l0.2,19.3L483.9,265.6z"/>
		<text transform="matrix(1 0 0 1 420.2827 244.5512)" class="st1 st2">KS</text>
	</g>
	<g id="KY" class="state">
		<path id="US-KY" class="st0" d="M654.4,226.1l0.5,1.6l0.3,3.7l2.1,2.6l1.1,2.6l2.4,2.1l1.8,1.9l2.9-0.2l-5,6.2l-4.2,2.7l-0.2,1.4
			l-1.3,2.1l-3.7,2.7l-1.1,1.9l-2.9,1.6l-4,1.6l-9.7,1.9l-12.9,0.8l-4.2,0.6l-8.3,0.5l-8.5,0.8l-7.8,0.6l-9.1,1.4l-0.5-0.8l-2.9,0.3
			l0.3,2.9l-20.8,1.4l3.2-2.1l2.2-1.8l-0.5-2.9l0.3-1.9l-0.8-2.7l0.8-1.8l4,0.6l3.7,1.4l1.8-1.6l-1-3.8l3.2-1.8l2.4-1.6l-1.4-1.6
			l1.4-2.7l-0.2-1.3l1.9,0.3V244l3.8,1.1l2.9-2.2l4.6,2.4l1-1.9l3-2.1l3.4,1.8l1.4-2.2l2.1-3.8l1.1,2.1l3,1.3l2.6-5.8l1.9-0.8
			l1.4-3.4l1.8-1.6l-0.2-3.5l3.4,0.3l2.1-1.9l2.4-0.3l0.5-1.4l-1.6-3.5l0.6-1l4.8-0.2l2.7,1.4l4.3,3.5l3.2,0.8l2.4,1.1l3.4-1
			l2.6,0.6l2.9-1.4l2.6-0.6l1.4,2.4L654.4,226.1z"/>
		<text transform="matrix(1 0 0 1 616.851 251.5512)" class="st1 st2">KY</text>
	</g>
	<g id="LA" class="state">
		<path id="US-LA" class="st0" d="M538,336.2l1.1,1l-1.3,2.7l2.4,3.7l-0.5,2.2l2.2,3l-2.1,1.9l-0.5,3.5l-2.9,3l-1.3,3.8l-1.3,4.5
			l-1.8,2.1l0.8,4.5L547,372l14.9-1l-0.2,3l-0.8,3l1.1,2.2l2.2,1.9l0.8,3l0.5,1.8l-1.3,7.7l5.8,10.5l-22.1,2.2l-13.9-3l-9.4-3.4
			l-12.3-1.9l-13.9-0.2l-1.4-2.4l1.6-2.7l2.4-2.4v-3.7l-1.1-1.1l1.3-4.5l1-2.1l1.3-6.7l-1.4-2.4l-1.9-4.2l-1.4-4.2l-1-2.9L495,357
			l-1.4-19.5l14.9-0.3l16.8-1.3L538,336.2z"/>
		<text transform="matrix(1 0 0 1 507.8417 371.5512)" class="st1 st2">LA</text>
	</g>
	<g id="MA" class="state">
		<path id="US-MA" class="st0" d="M796.1,113.1l2.6,9.3l6.9,8l5.6-1.1l-3.2-5.9l5.1,2.7l0.5,5.3l-8,5.4l-6.4,1.4l-1.1-2.6l-2.6-1.4
			l-2.2-4.3l-5.4,1.8l-12.3,2.9l-10.1,2.2l-0.3-12.8l10.7-2.6l15.7-4.2l0.8-2.1l2.4-1.9L796.1,113.1z"/>
		<path class="st0" d="M803.8,182.9h-30c-1.1,0-2-0.9-2-2V161c0-1.1,0.9-2,2-2h30c1.1,0,2,0.9,2,2v19.9
			C805.8,182,804.9,182.9,803.8,182.9z"/>
		<text transform="matrix(1 0 0 1 776.0798 176.2271)" class="st1 st2">MA</text>
	</g>
	<g id="MD" class="state">
		<path id="US-MD" class="st0" d="M744.4,185.2l6.1,22.4l9.3-2.1l1.1,1.4l-4,7.4l-3.2,1l-0.8,1.4l-8.9-6.9l-3.5-13.1l-1,6.7
			l3.5,15.3l-9.6-3.5l-1.3-2.4l-2.1,1.3l-2.1-0.6l0.8-4.3l2.1-2.2v-1.4l1.4-1.9l-2.1-1.4l-1,1.1l-3-1.4l-3.2-0.5l0.6-2.1l-2.1-1
			l-2.1-0.2l-1.6-2.1l-2.2-2.2l-4.5-0.6l-2.4,1.9l-1.3,1.6h-4.2l-1.4,2.2l-2.6,1.3l-1.9,2.6l-1.8,1.9l-1.6-9.1l12.8-2.4l4.3-1
			l9.7-2.1l11.7-2.4L744.4,185.2z"/>
		<path class="st0" d="M803.8,307.9h-30c-1.1,0-2-0.9-2-2V286c0-1.1,0.9-2,2-2h30c1.1,0,2,0.9,2,2v19.9
			C805.8,307,804.9,307.9,803.8,307.9z"/>
		<text transform="matrix(1 0 0 1 775.5939 301.2271)" class="st1 st2">MD</text>
	</g>
	<g id="ME" class="state">
		<path id="US-ME" class="st0" d="M797.3,108.5L796,109l-1.3-2.2l-3-1.9v-1.9l-10.5-31.5l4.3-4.5l2.1-9.3l-0.3-14.7l5.1-16l5.4,3.4
			l7-5.4l6.9,3.4l7.7,23.8l11.2,7.2l2.6,7.4L822.8,76L812,83.9l-11.2,14.7L797.3,108.5z"/>
		<text transform="matrix(1 0 0 1 792.1599 71.2271)" class="st1 st2">ME</text>
	</g>
	<g id="MI" class="state">
		<path id="US-MI" class="st0" d="M608.2,83.4L608.2,83.4h4.3l0,0l-1.4,2.1l7.2,6.4l-10.9,3h-0.5l-10.2-0.6l-9.4,4.8l-8.5,2.6
			l-6.4,12.3l-0.3-0.2l0,0l-1.9-1.9l0.6-3l-2.9,0.2l0.3-3l0.6-1.6l-1.4-2.4l-3-1l-1-2.9h-2.6l-3.5,0.3l-7.5-2.7l-11.3-2.6l-1.3-3.2
			l-1.9-0.6l0,0l-0.8,0.5l-0.2-0.2l0.2,0.2l9.4-5.3l9.6-6.7l10.4-7l-3.2,9.9l7.4,1.8l9.4,6.1l10.7-5.3l12.1-3l3.2,4.8l4,0.3
			L608.2,83.4z M644.6,143.6L644.6,143.6l-0.3,0.3l-4.8,10.9l-2.1,6.7l0,0l-3.7,7.5l0,0l-5.1,0.8l-6.1,0.8l-6.9,1l-0.2-1.4
			l-12.6,1.6l-14.5,1.4l0,0l0,0l2.4-2.7l4.5-9.4l-1-12l-5.6-10.7l-0.2-7.7l2.4-9.3l2.6-6.4l4.6-5l1.9,5.9l1.3-9.3l2.6-2.2l1-7
			l11.2,2.2l10.4,5.8l2.2,8v8.5l-6.2,8.2l1.3,4.5l2.6-0.2l7-9.1l5.1,1.1l3.8,10.1l1.8,7.2H644.6z"/>
		<text transform="matrix(1 0 0 1 602.4367 151.2271)" class="st1 st2">MI</text>
	</g>
	<g id="MN" class="state">
		<path id="US-MN" class="st0" d="M542.7,62.8L542.7,62.8l-12.1,6.9l-8.5,7.8l-8.2,8.2v2.7l-3.2,1.1l0.5,10.2h-0.3l-3,2.1l-2.7,1.9
			l-1.8,3.4l2.9,3.4l-0.8,4.6l0.2,5l-0.3,4l4,3.4l1.6,0.2l4.3,2.4l1.4,1.1l1,1.9l3.5,3l4.6,2.4l0.5,1.4l0.3,4.3l0.5,2.1l-17.4,0.5
			l-19.3,0.6l-18.1,0.5h-14.5l0.3-16.9l-1.4-17.4l-2.2-1.4l-1.3-2.9l0.6-2.4l2.9-2.1l0.2-2.7v-3.4l-0.8-2.7l-1-3l-0.6-3.7l-0.2-4.2
			l-0.5-1l-0.5-5.4v-2.4L453,74l-0.6-3.7l-1.4-3.8l-1.4-3.4l-0.2-3.4l-0.2-3.7l0.5-2.4l0.2-2.1l-1.1-2.7l-0.2-1.8h25.1v-7l4.2-0.2
			L480,50l3.8,3l8.6,1l12.6,2.6l12.1,5.1l9.7-2.9L542.7,62.8L542.7,62.8z"/>
		<text transform="matrix(1 0 0 1 468.6657 111.2271)" class="st1 st2">MN</text>
	</g>
	<g id="MO" class="state">
		<path id="US-MO" class="st0" d="M527.2,203.1l-1,4.6l1.4,5.4l2.6,3.7l2.9,2.9l3.4,2.2l1.3,0.8l1.4,3.4l0.5,3l1.6,0.6l2.6-1.3
			l2.9,2.7l-0.6,3.4l-1.1,2.7l-0.8,3.2l2.2,2.6l3,2.4h1.6l4,3.7l1.4,0.5l1.4,4.3l-0.3,2.7l2.2,4.3l1.6-0.6l2.7,2.6l-0.3,1.9l0.5,2.9
			l-2.2,1.8l-3.2,2.1l-0.3,1.8l-0.6,2.7l-0.8,4.5l-9.6,0.6l0.8-1.9l1.6-2.1l1.6-2.1l-1.4-2.2l-16.8-0.2l-15.5,0.6l-16.1,0.5
			l-17.7,0.2v-8.3l0,0l-0.2-19.3l-0.2-19.3l-3.7-1.6l-1.8-3.8l-1.1-1.8l1.9-3.4l-0.5-2.6h-1.8l-3.4-2.4l-1.9-3.8l-2.2-2.2l-2.4-2.9
			l-0.3-1.4h12.5l12.5-0.2l15.8-0.6l15-1l2.7,2.9L527.2,203.1z"/>
		<text transform="matrix(1 0 0 1 500.3864 248.2271)" class="st1 st2">MO</text>
	</g>
	<g id="MS" class="state">
		<path id="US-MS" class="st0" d="M580.7,297.1l1.4,3.4l-0.6,23.7l-0.3,29.2l2.9,27.8l-9.4,5l-9.1,0.3l-0.5-1.8l-0.8-3l-2.2-1.9
			l-1.1-2.2l0.8-3l0.2-3l-14.9,1l-13.9,0.2l-0.8-4.5l1.8-2.1l1.3-4.5l1.3-3.8l2.9-3l0.5-3.5l2.1-1.9l-2.2-3l0.5-2.2l-2.4-3.7
			l1.3-2.7l-1.1-1l0.5-3.7l-2.1-4.6l0.2-4.3l3-6.6l1.4-3.8l2.6-2.6l1.6-1.1l1.8-5l-0.2-2.6l2.6-1.6l0.2-1.4l14.7-1L580.7,297.1z"/>
		<text transform="matrix(1 0 0 1 549.1506 344.2271)" class="st1 st2">MS</text>
	</g>
	<g id="MT" class="state">
		<path id="US-MT" class="st0" d="M361.8,98.6l-2.1,16.6l-21.4-2.2l-23.2-2.6l-20-2.9l-25.3-3.8l-1.4,9.1l-0.3,0.6l-1.3-1.3
			l-0.8-2.7l-1.3-0.8l-2.4,3.2h-3l-7-2.4l-0.6,1.8l-4.2-1.4l-2.9,2.1l-1.4-5.1l-1.1-2.9l-2.6-1l-0.5-1.4l0.2-4.8l-1.8-2.7l-0.3-5.9
			l-1-2.7l-1.4-0.8l-1.8,2.2l-2.9,1.6l-1.9-2.2l0.8-4.6l1.8-0.8l-0.2-4.8l2.2-4.5l2.2-3.7l-3.7-1l-2.7-3.2l-2.2-6.2l-1.4-3.2
			l-2.4-2.2l-1.6-3.4l0.6-3.2l-2.1-5.4l3.2-19l35.5,7.4l35.8,6.2l36,5l36.1,3.8l-2.9,33.6L361.8,98.6z"/>
		<text transform="matrix(1 0 0 1 284.1144 77.2271)" class="st1 st2">MT</text>
	</g>
	<g id="NC" class="state">
		<path id="US-NC" class="st0" d="M755.9,241.4l6.1,17.3l-6.4,15.2l-12.9,9.9l-10.9,11.5l-5.1,2.1l-19.8-13.7l-16.5,2.7l0-2.1
			l-2.9-2.7l-1.3,1.4l-0.3-1.6l-7,0.3l-13.6,1.9l-7.5,4.3l-1.4,0.8l-18.4,2.4l-0.2-3.8l3-1.6l0.8-2.1l1.8-2.4l2.9-1l3.4-1.3l3.2-2.1
			l1.3-1.8l2.6-1.9l-0.3-1.3l3.4-3l1.4,1.4l4.8-4.2h2.6l1.8-3.4l2.9-1.3l-0.6-2.6v-2.2l24.5-3.4l28.6-5.3l15.2-3.4L755.9,241.4z"/>
		<text transform="matrix(1 0 0 1 711.3485 275.8434)" class="st1 st2">NC</text>
	</g>
	<g id="ND" class="state">
		<path id="US-ND" class="st0" d="M449,47.1l0.2,1.8l1.1,2.7l-0.2,2.1l-0.5,2.4l0.2,3.7l0.2,3.4l1.4,3.4l1.4,3.8l0.6,3.7l0.2,2.2
			v2.4l0.5,5.4l0.5,1l0.2,4.2l0.6,3.7l1,3l0.8,2.7v3.4l-24.3,0.6l-20.8-0.8l-26.1-1.4l-24.3-1.8l1.3-22.2l2.9-33.6l41.9,3L449,47.1z
			"/>
		<text transform="matrix(1 0 0 1 394.5741 79.8434)" class="st1 st2">ND</text>
	</g>
	<g id="NE" class="state">
		<path id="US-NE" class="st0" d="M457.8,166.3l0.6,1.8l0.8,3v1.4l2.4,3.4l0.8,3l0.2,4.2l1,0.6l1,2.2l1.4,5.3l0.3,3.2l-0.3,3.2
			l1,3.4l0.3,1.4l2.4,2.9l2.2,2.2l1.9,3.8h-19.2l-32.1-0.6l-18.1-0.8l-24.3-1.4l0,0v-0.6l1.3-17.6l-27.3-2.1l3-36.1l25.9,2.1l20,1.1
			l26.7,1.1l3.4,2.4l5,1.6l1.1-0.8l3.2,0.2l4.8-0.2l3.4,2.4l3.7,1.6l0.6,1.6l1.1,0.8L457.8,166.3z"/>
		<text transform="matrix(1 0 0 1 406.1405 189.8434)" class="st1 st2">NE</text>
	</g>
	<g id="NH" class="state">
		<path id="US-NH" class="st0" d="M797.3,108.5l-1.1,4.5l-1.6,0.2l-2.4,1.9l-0.8,2.1l-15.7,4.2l-1.6-1.6l0.5-2.6l-1-4.6l0.2-1.3
			l-0.6-4.3l0.5-3.8l0.6-1.8l0.3-4.6l-0.5-2.9V92l2.2-1.4l2.2-2.9l-0.2-2.2l-1.6-2.2l0.2-5.1l0,0v-4.6l4-1.8l10.5,31.5v1.9l3,1.9
			l1.3,2.2L797.3,108.5z"/>
		<path class="st0" d="M769.5,58.1h-30c-1.1,0-2-0.9-2-2V36.2c0-1.1,0.9-2,2-2h30c1.1,0,2,0.9,2,2v19.9
			C771.5,57.2,770.6,58.1,769.5,58.1z"/>
		<text transform="matrix(1 0 0 1 742.7217 51.4297)" class="st1 st2">NH</text>
	</g>
	<g id="NJ" class="state">
		<path id="US-NJ" class="st0" d="M764.5,157.4l-2.6,9.7h3.5l0.8,13.3l-6.7,16l-2.1-4.3l-3.2-0.2l-4.3-3.8l-1.1,0.5l-1.1-3.4
			l1.6-2.2l2.4-2.2l0.6-1.3l2.7-3l1.3-2.4l-5.3-3.5l-0.6-1.8l-1.6-0.2l-0.6-2.9l1.1-2.6l-1.3-2.1l1.8-2.1l1.4-4.5l1.4-1.1
			L764.5,157.4z"/>
		<path class="st0" d="M804.5,257.1h-30c-1.1,0-2-0.9-2-2v-19.9c0-1.1,0.9-2,2-2h30c1.1,0,2,0.9,2,2v19.9
			C806.5,256.2,805.6,257.1,804.5,257.1z"/>
		<text transform="matrix(1 0 0 1 780.2598 250.4297)" class="st1 st2">NJ</text>
	</g>
	<g id="NM" class="state">
		<path id="US-NM" class="st0" d="M362.1,261.9l-0.6,8.9l-3.7,47.5l-2.6,34.2l-14.4-1.1l-27.8-2.7l-13.9-1.6v1.6l1.4,3l-26.7-3.4
			l-1.3,7.4l-12.5-1.8l14.7-101.8l22.5,3l22.9,2.7l24.6,2.4L362.1,261.9z"/>
		<text transform="matrix(1 0 0 1 299.354 311.4297)" class="st1 st2">NM</text>
	</g>
	<g id="NV" class="state">
		<path id="US-NV" class="st0" d="M221.3,151.1L203.5,240l-2.7,14.4l-0.8,0.5l-1.4,2.6l-1.8-1.1l-2.6-1.8l-3-0.6l-1.4,1.9l0.8,2.7
			l-0.8,3.8l-0.5,3.5v3.7l-1.6,3.4l-19.3-27.8l-20-29.6l-20-30.4l14.2-52.4l39,9.7l0,0L221.3,151.1z"/>
		<text transform="matrix(1 0 0 1 161.5679 191.4297)" class="st1 st2">NV</text>
	</g>
	<g id="NY" class="state">
		<path id="US-NY" class="st0" d="M765,123.8l0.3,12.8l2.7,13.6l1.4,1.3l-2.4,2.4l1,2.1l18.2-7.2l4.8,2.2l-17.3,10.2l-8.5,2.2
			l-0.5-6.1l-11.8-4.5l-2.4-0.8l-2.6-0.6l-1.4-2.4l-0.2-2.1l-1.9-1.3l-3.5-2.1l-17.9,4l-19.3,4l-20.8,4l-0.8-4.8l9.4-12.8l-0.6-1.6
			l0,0l-2.7-4.8l6.4-3.5l10.4-1.4l11-0.8l8.5-8l-2.2-6.7l-2.1-2.4l0,0l0,0l0,0l10.4-15l5-4.6l19-4.8l0.6,3.7v2.4l1.6,5.1l1.4,2.6
			l-0.3,4l2.4,4.3l-0.2,2.7l0.5,0.6l1.9-0.3L765,123.8z"/>
		<text transform="matrix(1 0 0 1 731.7207 131.4297)" class="st1 st2">NY</text>
	</g>
	<g id="OH" class="state">
		<path id="US-OH" class="st0" d="M676.6,181.7l-1.8,1.3l1,2.2v4.2l-0.6,5l-0.6,4.2l0.2,1.9l-3,4.6l-1.4,1.1l-1.8,0.8l-1.8-0.2
			l-2.6,3.5v3.4l-0.2,1.8l-1.1,1l-0.5-1.9l-1.9-0.2l-1.4,4.2l0.3,4l-1.4,2.7l-3.4,1l-2.9-1.3l-1.4-2.4l-2.6,0.6l-2.9,1.4l-2.6-0.6
			l-3.4,1l-2.4-1.1l-3.2-0.8l-4.3-3.5l-2.7-1.4l-4.8,0.2l-1.4-12.5l-2.1-17.6l-1.9-16.3l6.9-1l6.1-0.8l5.1-0.8l0,0l0,0l8.8,2.6
			l6.9-0.2l9.4-3.8l7.2-6.2l6.4-3.5L676.6,181.7z"/>
		<text transform="matrix(1 0 0 1 633.4429 200.4297)" class="st1 st2">OH</text>
	</g>
	<g id="OK" class="state">
		<path id="US-OK" class="st0" d="M483.9,274l3.2,19.2V311l-0.2,15.8l-6.6-3.5l-4.3-1.9l-3.4,1.3l-5.3-0.2h-3.2l-2.6,1.4l-2.6,0.8
			l-2.2-1l-5.1,1l-2.2-3l-2.4,2.6l-4.2-1.3l-4.2-2.9l-4.6,1.8l-1.9-4.5l-7,0.3l-4.5-1.1l-5-1.4l-2.1-3.8l-4,1.1l-2.4-1.6l-3.5-2.1
			l0.8-17.3l0.8-17.7l-14.7-0.8l-14.5-1l-14.5-1.1l0.6-8.9l13.9,1.1l13.6,0.8l14.5,0.8l14.5,0.5l26.2,0.6l26.2,0.2l12.8-0.2l0,0
			L483.9,274z"/>
		<text transform="matrix(1 0 0 1 434.4326 298.4297)" class="st1 st2">OK</text>
	</g>
	<g id="OR" class="state">
		<path id="US-OR" class="st0" d="M199.7,71.9l2.1,4.2l1.8,1.9v2.9l-1.8,2.1l-2.7,4.2l-3.2,5.3l-3.5,2.9l-2.7,3.7l-0.6,2.9l2.1,1.8
			l0.5,2.6l-2.2,4.8l-7.7,31.8l0,0l-39-9.7L88,116.6l-1-11l9.9-17.3l7.2-19.3l10.5-25.6l2.6,0.5l3.7,1.3l2.4,2.6l3.2,2.1l1.3,4
			l-0.6,3l0.2,2.7L130,61l3,0.8l5.3-0.5l2.9,0.3l4.2,2.1l1.8,1.4l2.7,0.2l3.2-0.6l5.4,1.8l5.1-0.6l2.7-0.8l2.9,1.6l5-0.6L199.7,71.9
			z"/>
		<text transform="matrix(1 0 0 1 131.4688 104.4297)" class="st1 st2">OR</text>
	</g>
	<g id="PA" class="state">
		<path id="US-PA" class="st0" d="M752.7,152.9l-1.4,1.1l-1.4,4.5l-1.8,2.1l1.3,2.1l-1.1,2.6l0.6,2.9l1.6,0.2l0.6,1.8l5.3,3.5
			l-1.3,2.4l-2.7,3l-0.6,1.3l-2.4,2.2l-3.2-0.3l-1.1,1.1l-0.8,1.6l-12,2.7l-11.7,2.4l-9.7,2.1l-4.3,1l-12.8,2.4l-14.4,2.6l-2.9-16.5
			l-4.2-24l0,0l9.1-6.9l0,0l0.8,4.8l20.8-4l19.3-4l17.9-4l3.5,2.1l1.9,1.3l0.2,2.1l1.4,2.4l2.6,0.6L752.7,152.9z"/>
		<text transform="matrix(1 0 0 1 701.2158 176.4297)" class="st1 st2">PA</text>
	</g>
	<g id="RI" class="state">
		<path id="US-RI" class="st0" d="M799,138.2l-8.8,5.8l0.2-2.7l-2.7-9.6l5.4-1.8l2.2,4.3l2.6,1.4L799,138.2z"/>
		<path class="st0" d="M803.8,207.9h-30c-1.1,0-2-0.9-2-2V186c0-1.1,0.9-2,2-2h30c1.1,0,2,0.9,2,2v19.9
			C805.8,207,804.9,207.9,803.8,207.9z"/>
		<text transform="matrix(1 0 0 1 781.8303 201.2271)" class="st1 st2">RI</text>
	</g>
	<g id="SC" class="state">
		<path id="US-SC" class="st0" d="M726.8,297.4l-3.5,13.7l-11.2,13.6l-14.4,11.8l-2.7-0.5l-1.6-0.5l-0.5-3.4l-2.1-3.2l-3.2-1.4
			l0.3-1.4l-1.3-1.9l-1.8-4l-5.4-2.9l-2.4-4l-4-2.4l-1.4-2.1l-5.9-3.5l-2.2-2.9l-3.7-5.3l-2.7-0.6l-4.5-2.4l1.9-3.7l1.4-1.8l1.4-0.8
			l7.5-4.3l13.6-1.9l7-0.3l0.3,1.6l1.3-1.4l2.9,2.7l0.3,2.1l16.5-2.7L726.8,297.4z"/>
		<text transform="matrix(1 0 0 1 687.1667 311.2271)" class="st1 st2">SC</text>
	</g>
	<g id="SD" class="state">
		<path id="US-SD" class="st0" d="M457.8,147.8H456v4.5l1.8,2.4l-0.3,1.9l-0.6,2.9l-1.1,3l2.2,2.1v1.6l-2.6-0.2l-1.1-0.8l-0.6-1.6
			L450,162l-3.4-2.4l-4.8,0.2l-3.2-0.2l-1.1,0.8l-5-1.6l-3.4-2.4l-26.7-1.1l-20-1.1l-25.9-2.1l3-37.1l2.1-16.6l24.3,1.8l26.1,1.4
			l20.8,0.8l24.3-0.6l-0.2,2.7l-2.9,2.1l-0.6,2.4l1.3,2.9l2.2,1.4l1.4,17.4L457.8,147.8z"/>
		<text transform="matrix(1 0 0 1 398.3928 134.2271)" class="st1 st2">SD</text>
	</g>
	<g id="TN" class="state">
		<path id="US-TN" class="st0" d="M643.5,260.8l21.6-2.6l7.4-1.4v2.2l0.6,2.6l-2.9,1.3l-1.8,3.4h-2.6l-4.8,4.2l-1.4-1.4l-3.4,3
			l0.3,1.3l-2.6,1.9l-1.3,1.8l-3.2,2.1l-3.4,1.3l-2.9,1l-1.8,2.4l-0.8,2.1l-3,1.6l0.2,3.8l-7.8,1.1l-11.5,1.3l-19.2,1.8l-18.7,1.8
			l-16.3,1l-14.7,1l1.6-1.8l-0.5-5.3l2.2-2.6l0.3-3l2.4-1.9l1.3-2.7v-1.4l0.8-4.5l0.6-2.7l0.3-1.8l20.8-1.4l-0.3-2.9l2.9-0.3
			l0.5,0.8l9.1-1.4l7.8-0.6l8.5-0.8l8.3-0.5l4.2-0.6l12.9-0.8L643.5,260.8z"/>
		<text transform="matrix(1 0 0 1 598.4284 284.2271)" class="st1 st2">TN</text>
	</g>
	<g id="TX" class="state">
		<path id="US-TX" class="st0" d="M487,326.6l0.8,1.1l2.9-0.3h3.5l-0.6,10.4l1.4,19.5l2.6,1.9l1,2.9l1.4,4.2l1.9,4.2l1.4,2.4
			l-1.3,6.7l-1,2.1l-1.3,4.5l1.1,1.1v3.7l-2.4,2.4L497,396l1.4,2.4l-13.6,4.2l-14.5,13.7l-16.1,8l-8.9,8.6l-3.8,8.3L441,454l0.6,8.9
			l3,6.4l-6.6,0.5l-11.8-4.3l-12.8-6.1l-4.3-8.8l-3.2-13.1l-9.3-10.9l-5.1-11l-7.4-12.9l-10.9-8l-13.1-0.5L349.1,408l-12.9-6.6
			l-7.8-6.2l-3-10.4l-4.3-10.1l-8.5-8.9l-7.4-6.6l-5-7l-1.4-3v-1.6l13.9,1.6l27.8,2.7l14.4,1.1l2.6-34.2l3.7-47.5l14.5,1.1l14.5,1
			l14.7,0.8l-0.8,17.7l-0.8,17.3l3.5,2.1l2.4,1.6l4-1.1l2.1,3.8l5,1.4l4.5,1.1l7-0.3l1.9,4.5l4.6-1.8l4.2,2.9l4.2,1.3l2.4-2.6l2.2,3
			l5.1-1l2.2,1l2.6-0.8l2.6-1.4h3.2l5.3,0.2l3.4-1.3l4.3,1.9L487,326.6z"/>
		<text transform="matrix(1 0 0 1 409.2116 374.2271)" class="st1 st2">TX</text>
	</g>
	<g id="UT" class="state">
		<path id="US-UT" class="st0" d="M285.2,180.4L275,252.1l-20.8-3.4l-27.5-4.8l-23-4.2l17.7-88.9l39.8,7.2l-3,17.4L285.2,180.4z"/>
		<text transform="matrix(1 0 0 1 233.5275 213.2271)" class="st1 st2">UT</text>
	</g>
	<g id="VA" class="state">
		<path id="US-VA" class="st0" d="M719.4,198l2.1,0.2l2.1,1l-0.6,2.1l3.2,0.5l3,1.4l1.4,1.3l0.2,1.1v1.4l-2.1,2.2l-0.8,4.3l2.1,0.6
			l2.1-1.3l1.3,2.4l11,8l4.6,7.8l0.3,0.5l6.6,10.1l-15.3,3.5l-15.2,3.4l-28.6,5.3l-24.5,3.4l-7.2,1.4l-21.6,2.6l4-1.6l2.9-1.6l1-1.9
			l3.7-2.7l1.3-2.1l0.2-1.4l4.2-2.7l5-6.2l1.1,2.9l1.9,1.4l2.4,1.1l4.2-2.9l1.9,1l5.1-2.4v-1.6l1.8,0.3l1.6-1.6l2.1-0.2l2.1-1.8
			v-1.8l-1-2.2l1.4-3.4l2.4-2.9l0.2-2.7l1.8-3.7l0.6-4.2l2.1,1l2.4,1l1.9-1.1l0.3-1.8l1-2.4l1.1-2.9l1.1,0.5l1.6-2.7l2.2-2.9
			l1.4-2.1l0.2-5l8,3.4L719.4,198z M750.7,229.5l1.4,0.5l4.6-16l-3.2,1l-0.8,1.4L750.7,229.5z"/>
		
		<text transform="matrix(1 0 0 1 708.2936 238.2271)" class="st1 st2">VA</text>
	</g>
	<g id="VT" class="state">
		<path id="US-VT" class="st0" d="M775.7,121.3l-10.7,2.6l-3.2-14.7l-1.9,0.3l-0.5-0.6l0.2-2.7l-2.4-4.3l0.3-4l-1.4-2.6l-1.6-5.1
			v-2.4l-0.6-3.7l23-6.1l0,0l-0.2,5.1l1.6,2.2l0.2,2.2l-2.2,2.9l-2.2,1.4v1.8l0.5,2.9l-0.3,4.6l-0.6,1.8l-0.5,3.8l0.6,4.3l-0.2,1.3
			l1,4.6l-0.5,2.6L775.7,121.3z"/>
		<path class="st0" d="M724.1,58.1h-30c-1.1,0-2-0.9-2-2V36.2c0-1.1,0.9-2,2-2h30c1.1,0,2,0.9,2,2v19.9C726.1,57.2,725.3,58.1,724.1,58.1z"/>
		<text transform="matrix(1 0 0 1 699.6723 51.4297)" class="st1 st2">VT</text>
	</g>
	<g id="WA" class="state">
		<path id="US-WA" class="st0" d="M210.9,17.9l-5.3,22.9l-5.4,24.9l0.5,3l-0.8,3.2l-25.6-6.2l-5,0.6l-2.9-1.6l-2.7,0.8l-5.1,0.6
			l-5.4-1.8L150,65l-2.7-0.2l-1.8-1.4l-4.2-2.1l-2.9-0.3l-5.3,0.5l-3-0.8l-2.7-1.4l-0.2-2.7l0.6-3l-1.3-4l-3.2-2.1l-2.4-2.6
			l-3.7-1.3l-2.6-0.5l1.3-15.5l3.5-17.4l15.3,8.3l1.1,15.3l4.3-3.7l2.4-15L141.7-1l34.7,10.1L210.9,17.9z"/>
		<text transform="matrix(1 0 0 1 156.0453 44.4297)" class="st1 st2">WA</text>
	</g>
	<g id="WI" class="state">
		<path id="US-WI" class="st0" d="M534.4,89.5L534.4,89.5l0.8-0.3l0,0l2.1,0.5l1.3,3.2l11.3,2.6l7.5,2.7l3.5-0.3h2.6l1,2.9l3.2,1
			l1.4,2.4l-0.6,1.6l-0.3,3l2.9-0.2l-0.6,3l1.9,1.9l0,0l0.3,0.2l-0.2,0.2l-4.5,7l1.9,1.9l8.3-12.6l1.9-0.3l-5.3,14.5l-1.8,12.9
			l-1.6,10.5l2.4,8.8v4.5l0,0l0,0l-10.4,0.8l-14.1,1l-13.7,1l-1.4-2.7l-4.5-1.4l-1-2.9l-0.6-1.6l-0.3-3.8l1.1-1.4l-1.9-2.7l-0.2-1
			l-0.5-2.1l-0.3-4.3l-0.5-1.4l-4.6-2.4l-3.5-3l-1-1.9l-1.4-1.1l-4.3-2.4l-1.6-0.2l-4-3.4l0.3-4l-0.2-5l0.8-4.6l-2.9-3.4l1.8-3.4
			l2.7-1.9l3-2.1h0.3l-0.5-10.2l3.2-1.1l0,0l12.5-4.5L534.4,89.5z"/>
		<text transform="matrix(1 0 0 1 533.4023 130.4297)" class="st1 st2">WI</text>
	</g>
	<g id="WV" class="state">
		<path id="US-WV" class="st0" d="M693.8,195.6l1.6,9.1l1.8-1.9l1.9-2.6l2.6-1.3l1.4-2.2h4.2l1.3-1.6l2.4-1.9l4.5,0.6l2.2,2.2
			l1.6,2.1l-0.8,3.7l-8-3.4l-0.2,5l-1.4,2.1l-2.2,2.9l-1.6,2.7l-1.1-0.5l-1.1,2.9l-1,2.6l-0.3,1.8l-1.9,1.1l-2.4-1l-2.1-1l-0.6,4.2
			l-1.9,3.7l-0.2,2.7l-2.2,2.9l-1.4,2.7l0.6,2.1v1.8l-2.1,1.8l-2.1,0.2l-1.6,1.6l-1.8-0.3v1.6l-5.1,2.4l-1.9-1l-4.2,2.9l-2.4-1.1
			l-1.9-1.4l-1.1-2.9l-2.9,0.2l-1.8-1.9l-2.4-2.1l-1.1-2.6l-1.9-2.7l-0.3-3.7l-0.5-1.6l3.4-1l1.4-2.7l-0.3-4l1.4-4.2l1.9,0.2
			l0.5,1.9l1.1-1l0.2-1.8v-3.4l2.6-3.5l1.8,0.2l1.8-0.8l1.4-1.1l3-4.6l-0.2-1.9l0.6-4.2l0.6-5v-4.2l-1-2.2l1.8-1.3l2.9,16.5
			L693.8,195.6z"/>
		<text transform="matrix(1 0 0 1 665.5317 226.4297)" class="st1 st2">WV</text>
	</g>
	<g id="WY" class="state">
		<path id="US-WY" class="st0" d="M359.5,115.2l-3,37.1l-3,36.1l-13.7-1.3l-27.3-3l-13.6-1.8l-13.6-1.9l-27-4.6l3-17.4l7.5-44.6
			l-0.5-0.3l0.3-0.6l1.4-9.1l25.3,3.8l20,2.9l23.2,2.6L359.5,115.2z"/>
		<text transform="matrix(1 0 0 1 296.6845 152.4297)" class="st1 st2">WY</text>
	</g>
</g>
</svg>
